PathFileType	4	(X/Y/Z)	D:\Long Term Storage\D'Arcy Smith\Coord20.trc
DataRate	CameraRate	NumFrames	NumMarkers	Units	OrigDataRate	OrigDataStartFrame	OrigNumFrames
120.00	120.00	      138	4	mm	120.00	1815	      4839
Frame#	Time	M1			M2			M3			M4			
		X1	Y1	Z1	X2	Y2	Z2	X3	Y3	Z3	X4	Y4	Z4	

1815	15.117	647.23096	364.59637	437.89148	1009.13513	468.18323	595.43658							
1816	15.125	646.22461	360.34561	411.48752	1008.78015	465.51492	591.76569							
1817	15.133	644.83716	357.87338	384.30325	1008.87183	462.50345	589.58301							
1818	15.142	643.00568	357.12778	356.63245	1008.96674	459.31619	587.03687							
1819	15.150	640.73474	358.23953	328.40536	1008.76379	455.67184	583.86444							
1820	15.158	638.20209	361.31680	300.02600	1008.58423	451.56943	579.93701							
1821	15.167	635.03436	366.10474	271.81006	1008.35889	447.10684	575.64178							
1822	15.175	631.61267	372.77426	244.07990	1007.83618	442.40051	570.69611							
1823	15.183	627.71283	380.95319	217.33195	1007.48383	437.30090	564.99469							
1824	15.192	623.67712	391.39478	190.84120	1007.03741	432.46991	558.38892							
1825	15.200	619.75452	402.72894	165.83829	1006.04413	426.18216	551.91382							
1826	15.208	615.71503	415.00473	142.18236	1005.12189	420.08951	544.18530							
1827	15.217	611.56091	428.28140	119.79538	1004.05042	413.98251	536.05603							
1828	15.225	607.42090	442.75040	98.49222	1002.92139	407.59033	527.11871							
1829	15.233	603.36444	457.18655	79.16565	1002.10712	401.71460	516.41699							
1830	15.242	599.34790	471.60916	61.68829	1001.05420	395.09161	506.31479							
1831	15.250	595.75519	486.69223	45.86683	999.27216	388.75146	494.26520							
1832	15.258	592.35602	501.65128	31.85432	997.68030	381.86902	482.83148							
1833	15.267	589.18414	516.16614	19.65221	996.20050	376.19873	469.31622							
1834	15.275	586.40924	529.92352	9.25014	994.54254	370.19009	455.43823							
1835	15.283	584.53064	542.45715	0.78955	992.89941	364.61160	440.23438							
1836	15.292	583.17505	553.55682	-6.00134	991.12415	359.10275	424.94971							
1837	15.300	582.34155	563.03918	-11.39402	989.45715	354.33286	408.67804							
1838	15.308	582.19843	570.90753	-15.54082	987.67969	349.61667	391.49063							
1839	15.317	582.51556	577.14551	-18.55843	986.00232	345.88211	373.71930							
1840	15.325	583.22845	581.78265	-20.66672	984.11029	342.84085	356.40231							
1841	15.333	584.65277	584.70447	-21.89037	982.24890	341.30042	337.01077							
1842	15.342	586.49805	586.06073	-22.50113	980.76978	339.93555	318.17184							
1843	15.350	588.74030	585.81885	-22.33243	979.22760	339.37943	298.64099							
1844	15.358	591.45917	584.06464	-21.54547	977.74066	339.75339	279.32608							
1845	15.367	594.30963	580.90436	-20.23251	976.27570	341.10672	259.59259							
1846	15.375	597.48297	576.51154	-18.18616	974.91339	343.24438	239.83157							
1847	15.383	600.74298	570.85352	-15.68989	973.59430	346.35074	220.04451							
1848	15.392	604.22833	563.82855	-12.44356	972.48505	350.58734	200.45529							
1849	15.400	607.66095	555.63660	-8.47707	971.57910	355.51843	181.23961							
1850	15.408	611.18909	546.61670	-4.07466	970.67755	361.47647	162.32401							
1851	15.417	614.72803	536.41437	1.30110	969.66748	367.74625	144.37642							
1852	15.425	618.01501	525.30334	7.24330	969.40881	375.91882	125.98503							
1853	15.433	621.40527	512.92725	14.76075	968.99854	384.33490	108.69892							
1854	15.442	624.52533	499.78973	23.37382	968.67584	393.97144	90.69067							
1855	15.450	627.76923	485.71204	33.59335	968.32581	402.86014	74.24535							
1856	15.458	630.89307	470.90417	45.59640	968.67749	413.44397	59.20554							
1857	15.467	634.05908	455.39615	59.77397	968.74750	423.85733	45.30893							
1858	15.475	637.14514	439.96722	75.78831	968.89661	434.47952	32.37272							
1859	15.483	639.89679	424.43158	93.77808	969.27338	445.16705	20.57476							
1860	15.492	642.77356	408.71667	114.86290	969.61713	455.83517	9.79039							
1861	15.500	644.87671	394.24115	137.29605	970.19031	466.32846	-0.03398							
1862	15.508	646.53943	381.65723	161.05444	970.63696	476.48599	-8.81719							
1863	15.517	647.66870	370.77466	186.11278	970.97052	485.64667	-16.57477							
1864	15.525	648.37585	361.77368	212.25395	971.63092	495.27390	-23.88575							
1865	15.533	648.25220	354.84924	239.14693	972.13611	503.68280	-30.11033							
1866	15.542	647.38391	350.46469	264.96832	972.60071	511.27295	-35.30501							
1867	15.550	646.24994	347.39023	291.60312	972.51428	518.17883	-39.95779							
1868	15.558	644.84308	345.65457	318.24167	973.35400	523.48212	-43.11513							
1869	15.567	642.76019	346.11749	343.66678	973.75604	528.03687	-45.68925							
1870	15.575	640.46381	348.05838	368.18073	974.07593	531.50714	-47.51144							
1871	15.583	637.97882	350.81912	390.72284	974.32422	533.68732	-48.36072							
1872	15.592	634.82214	354.74841	411.47250	974.81226	534.98804	-48.80804							
1873	15.600	632.04315	359.69867	430.44495	975.10553	535.13696	-48.39790							
1874	15.608	629.31696	364.46567	446.60526	975.36957	534.09155	-47.35751							
1875	15.617	626.49896	368.93350	459.58517	975.64459	532.14587	-45.77187							
1876	15.625	623.82300	372.95087	467.69611	975.76654	529.07147	-43.51255							
1877	15.633	622.07440	375.30234	476.47769	975.95703	525.31714	-40.85371							
1878	15.642	620.95148	376.43173	478.48065	976.11285	520.61597	-37.48143							
1879	15.650	620.67249	376.35138	476.87762	976.08868	515.18872	-33.56544							
1880	15.658	621.03577	375.00632	472.01367	975.91815	508.75043	-29.22005							
1881	15.667	621.75159	372.86694	462.38229	975.62268	501.70218	-23.88269							
1882	15.675	622.67554	370.19864	451.64743	975.73529	494.28210	-18.04712							
1883	15.683	624.00208	367.18195	438.33173	975.70612	486.86963	-12.08179							
1884	15.692	625.57166	364.34586	423.31491	975.67175	478.70428	-5.20090							
1885	15.700	627.18317	362.01044	406.00015	975.60815	470.24527	2.29587							
1886	15.708	628.13019	361.00186	387.58527	975.46625	461.47638	10.42677							
1887	15.717	629.64972	360.09875	367.95425	975.33777	452.57578	19.30978							
1888	15.725	630.74200	360.62244	347.59854	975.21051	443.43472	28.78385							
1889	15.733	631.66455	362.59393	326.59302	974.93085	434.28241	38.99241							
1890	15.742	632.39453	365.74951	305.35013	974.54620	425.16745	49.79205							
1891	15.750	632.86481	370.33682	283.97238	974.25256	416.30298	61.42136							
1892	15.758	632.93317	376.00510	262.65805	973.83630	406.95270	73.80174							
1893	15.767	632.86163	382.91898	241.84943	973.78021	398.65039	86.35359							
1894	15.775	632.23572	390.57556	221.78580	973.60400	390.20441	99.49300							
1895	15.783	631.59503	400.04553	201.48186	973.50226	381.69992	113.75610							
1896	15.792	630.48376	409.73929	183.26352	973.37408	373.59894	130.98544							
1897	15.800	629.06293	420.74631	162.98154	973.30365	366.04132	146.38005							
1898	15.808	627.48816	432.30936	144.73441	973.55011	358.89688	162.05479							
1899	15.817	625.59827	444.45514	127.40448	973.78796	352.50668	178.29202							
1900	15.825	623.26318	457.86343	110.43670	974.25446	346.30939	195.32355							
1901	15.833	620.69855	471.11142	94.73151	974.55353	340.74893	212.62009							
1902	15.842	617.72357	484.44299	80.37434	975.26501	335.89957	230.44537							
1903	15.850	614.85504	498.13937	66.79085	975.96576	332.03635	248.59862							
1904	15.858	611.58215	511.83926	54.08070	976.89398	329.15247	266.95572							
1905	15.867	608.23456	525.34198	42.38363	977.93073	327.16864	285.62851							
1906	15.875	604.87482	538.40533	31.90575	979.03851	326.23611	304.36810							
1907	15.883	601.73218	551.04962	22.44749	980.48273	326.51767	322.67975							
1908	15.892	598.68201	562.97858	14.02101	981.73926	327.54489	341.23114							
1909	15.900	595.62750	574.19843	6.62561	983.14038	328.71536	360.67099							
1910	15.908	592.80090	584.42786	0.07254	984.32098	331.74380	378.80222							
1911	15.917	590.12628	593.64502	-5.56034	985.95074	336.12424	395.97800							
1912	15.925	587.82611	601.58398	-10.32017	987.09930	340.84821	413.94830							
1913	15.933	585.52661	608.43823	-14.47615	988.64819	347.25690	429.95447							
1914	15.942	583.59113	613.98267	-17.78007	989.87231	353.17072	446.18372							
1915	15.950	582.03485	618.26556	-20.69249	991.21130	361.06226	460.38312							
1916	15.958	580.69037	620.98480	-22.86937	992.20172	367.97003	475.04062							
1917	15.967	579.71954	622.11139	-24.27637	993.49792	376.14664	487.92914							
1918	15.975	579.00171	621.88489	-25.33855	994.69629	385.17856	498.54742							
1919	15.983	578.73212	620.13861	-25.55686	995.91602	393.81207	509.63644							
1920	15.992	578.84399	616.82507	-25.34471	996.68243	402.36514	519.57910							
1921	16.000	579.35486	612.23260	-24.53872	997.39117	410.89255	528.43036							
1922	16.008	580.24646	606.03027	-22.93655	997.97992	419.49246	537.24872							
1923	16.017	581.49554	598.71265	-20.81887	998.84534	427.66055	541.65375							
1924	16.025	583.10071	590.00500	-17.95630	998.99176	435.25598	551.03601							
1925	16.033	584.83289	580.20105	-14.39313	999.30029	442.53229	555.59540							
1926	16.042	586.89880	569.25897	-10.06842	999.40503	449.46396	560.82379							
1927	16.050	588.88861	557.31647	-5.11173	999.26788	455.65445	564.70624							
1928	16.058	591.28912	544.54620	0.96124	999.13947	461.43951	568.82867							
1929	16.067	593.70563	530.84381	7.93787	999.09009	466.69223	571.94604							
1930	16.075	596.28198	516.12598	16.11106	998.78741	471.18732	575.00140							
1931	16.083	598.86023	500.83881	25.51911	998.32349	475.07996	577.52631							
1932	16.092	601.48279	484.92883	36.39516	997.77161	477.42468	580.57831							
1933	16.100	604.29346	468.53513	48.76237	997.20044	479.93530	582.29291							
1934	16.108	607.07947	451.92410	62.70234	996.49011	481.61774	583.58563							
1935	16.117	610.16541	435.65332	78.01090	995.55695	482.66193	584.04547							
1936	16.125	612.85333	419.28525	95.46230	994.69012	482.85574	584.49622							
1937	16.133	615.21655	403.06665	114.97969	993.75403	482.27957	584.50397							
1938	16.142	617.16937	388.39951	135.92682	992.88428	481.83167	583.01849							
1939	16.150	618.74506	374.01300	158.69638	992.13153	479.74243	581.50964							
1940	16.158	619.96539	361.49142	183.27213	990.74487	477.59723	580.54633							
1941	16.167	620.72565	350.69864	209.18196	989.62836	474.39700	578.31708							
1942	16.175	621.13330	341.65607	236.22012	988.48419	470.80347	575.83362							
1943	16.183	621.49268	335.11465	264.08447	987.27856	466.64081	573.30017							
1944	16.192	621.00574	330.19519	293.63474	985.87378	461.87894	569.59686							
1945	16.200	620.33112	327.90280	323.04034	984.81061	456.69971	565.94330							
1946	16.208	619.60895	328.35706	351.92471	983.99792	450.98434	560.64215							
1947	16.217	618.13556	329.73965	381.63290	982.39789	445.38455	555.83929							
1948	16.225	616.36957	333.78452	410.43692	981.23712	438.96707	549.28717							
1949	16.233	614.27637	340.48004	437.80096	980.00470	432.68750	542.69775							
1950	16.242	612.02008	348.23611	465.14404	978.96832	425.90350	534.83459							
1951	16.250	609.52246	357.53943	492.73383	977.73895	419.23111	526.14899							
1952	16.258	606.72107	368.96497	516.74475	976.77252	412.20071	516.91992							
